<svg id="Layer_1" data-name="Layer 1" xmlns="http://www.w3.org/2000/svg" viewBox="0 0 2003.49 1948.72"><path d="M2003.49,1514.33c-29.75,17.5-58.68,36.65-89.48,52.05a920.43,920.43,0,0,1-99.29,42.2c-64.19,23.13-130.76,34.26-199.13,34.43-4.37,0-11.28,2.18-12.7,5.31-13.86,30.44-30.25,60.36-39,92.32-8.16,29.82,5.43,48.1,33.54,60.25,2.64,1.14,5.09,2.73,7.62,4.12-.31,1.46-.63,2.92-1,4.39-10-2.05-20.45-3.06-30.08-6.34-22.75-7.75-42-2.46-58.62,11.65,29.66,18.27,57.8,38,88.15,53.37,17.7,9,39,10.89,58.58,16,1.77.47,3.42,1.38,5.5,5.32-4.72.84-9.44,2.37-14.17,2.41-89.53.85-176.17-15.06-261-43.33-54.18-18.06-109.45-32.86-163.67-50.8-24.57-8.13-47.78-20.36-70.17-30.1-10.81,24.92-20.79,50.05-32.51,74.33-11.89,24.62-24.39,25.74-40.39,4.2a458.61,458.61,0,0,1-28-42.77c-52-89.46-98.75-181.53-132.46-279.64-9.77-28.43-17.59-57.55-25.71-86.51-4.63-16.51-11.59-28.61-29.32-36.15-103-43.81-209.92-49.42-319.17-36.25-1.93.23-3.79,1.12-8.47,2.56,21.09,26.3,40.87,51.84,61.62,76.58,13.8,16.45,29.12,31.62,43.49,47.6,9.23,10.27,18.58,11,31.93,6.49,19.74-6.63,40.63-12.1,61.3-13.29,46.27-2.66,87.05,25,105.38,68,17.76,41.74,21.67,84-1.39,124.64-19.31,34-50,56.76-86.83,68.11-32.85,10.12-66.95,19.22-101,21.64-53.11,3.79-106.55,4.64-158.24-15.84-40.82-16.17-83.4-27.94-125.17-41.66L299.11,1775c15,12.15,31.94,22.68,44.61,37a173.44,173.44,0,0,1,30.81,49c12,29.6,7.54,39.08-17.89,56.7,82.4,26.66,166.89,28.44,252.51,22.59l-35.53,8.47H440.89c-2.7-1-5.33-2.41-8.12-3q-46.83-10.47-93.69-20.73c-86.38-19-157.19-69.43-229-116.45-38.47-25.21-71.26-59.08-106.61-89v-21.12c7.58,9.18,14.2,19.42,22.94,27.33,22.66,20.53,45.21,41.44,69.75,59.56,28.47,21,59,39.24,88.67,58.68l3.53-1.36c-6.44-25.07-2-47.34,21.82-57.81,20.38-9,43.11-12.56,65.52-18.72a29.42,29.42,0,0,0-1.81-5.49c-14-30.44-17.4-62.2-13.94-95.39a369.26,369.26,0,0,1,43.42-139.65c4.72-8.67,4.43-15.71-.55-24.89-15.53-28.57-29.33-58.09-44.32-87-2.77-5.35-7.44-12.8-12.1-13.49-12.66-1.9-26.47-3.38-38.58-.22-35.8,9.35-71.21,20.33-106.33,32-19.1,6.37-37.28,15.51-57.8,24.21,17.71,17.62,38.18,26.59,46.33,47.15-14.41-9.48-27.94-19.8-41.28-30.37-8-6.36-15.19-7.06-21.39,2.26q-12,18-23.88,36.11V1490.2l21-28.71c-.65-1.09-1.3-2.18-2-3.27l-19.07,7.84v-51.28c3.05,8.34,6.17,16.65,9.15,25,3.34,9.42,9.14,13.68,21.34,9.57l-16.6-40.12q2.34-1.54,4.67-3.1c14.76,6.85,14.23,25.14,22.43,37.57L82,1426.37c-18.05-22.74-35.35-43.95-51.88-65.72-5.56-7.32-10.74-9.55-18.29-5v41.23c-3.3-13.18-5.84-23.3-8.37-33.42v-18.1l40.63-12.11L3.49,1297.13v-12.06c6.2,4.8,12.45,9.53,18.59,14.41,48.28,38.31,103.12,63.54,162.26,79.29,20.31,5.41,41.67,6.89,62.69,10.19-8.06-34.75-15.51-66.85-22.94-99-13.86-59.83-21.83-120.21-16.09-181.76,2.88-30.89,4.84-62,9.62-92.56,4.47-28.65,12.09-56.81,18.37-85.19,2.47-11.2-.6-17.7-13.42-16.18s-25.8,2.94-38.67,4.61c-7.82,1-15.6,2.41-24.08,3.74.94-3.8,1.57-6.4,3.49-14.2-13.59,5.63-24.87,8.17-33.65,14.31-51.07,35.67-94.65,78.7-126.17,133v-24.14C36.61,981.29,82.1,943.4,128.05,909.89L3.49,847.66V832.58c13.67,8.4,27,17.5,41.07,25.08,57.73,31,117.63,53.94,185.05,48.28,7.93-.67,13.41-.4,16.17-10.67,8.69-32.36,18.59-64.41,29.06-96.24,4.1-12.46,11-24,16.85-36.63C185.21,763.54,86,747.33,3.49,675.72V633.48l61.71-27.8C59.51,588.4,54,571.32,48.12,554.39c-.8-2.28-4.21-5.65-5.81-5.34-16.26,3.07-27.49-6-38.82-15.11v-18.1c4.26,4.76,8.37,9.67,12.81,14.27,7.2,7.44,15,13.32,27.32,8.42-3.45-17.67-14.1-29.9-28.2-39.2-2.56-1.69-7.89.84-11.93,1.42v-18.1c27.5,4.25,39.9,25.93,53.12,48.29,9.74-22.05,10.43-46.09,26.74-66.05,1.91,4.9,3.27,6.62,2.86,7.6-10.41,24.8-12.74,52.56-27.68,75.76-1.35,2.11-1.28,6-.35,8.55,5.51,14.9,11.46,29.62,16.41,42.23L257.2,558.35l1.11,3.91c-18.19,9.22-36.67,17.93-54.52,27.77-35.35,19.5-69.58,40.55-93.32,77.33-6-8.29-12.29-17.49-19.17-26.19-19.74-25-19.94-25.13-48.84-12.42C29.58,634.41,17.2,641.2,0,649.77,17.1,664,29.15,676,43,685.27c67.05,44.89,142.55,58.83,221.77,61.39,27.11.87,43.92-6.17,58.09-30.28,18.83-32,43.14-60.89,77.81-77.62a95.28,95.28,0,0,1,63.09-7.35c17.14,3.75,23.24,16.94,28.35,33.09,14.85-13,28.8-23.71,40.88-36.25,7.7-8,12.62-18.65,20.49-30.72,2.59-1.83,9.72-4.88,14-10.21,65.35-80.51,87.12-171.83,62.42-272.39q-26.88-109.5-109.83-188.19c-56.23-53.22-120.5-90.65-195.83-106C231.58,1.78,141.48,9.07,58.83,60.81c-18.6,11.65-36.9,23.8-55.34,35.72V72.4C15.9,65.27,27.88,57.2,40.81,51.2,76.42,34.68,112.43,19,148.28,3h184C364,14.88,396.18,25.44,427.13,39,468,56.79,502.29,84.67,534.52,115.26a377.43,377.43,0,0,1,84.67,119.5c59.69,132.14,49.21,256.58-43.14,371-11.89,14.74-18.76,27.22-14.07,48,10.46,46.4,16.8,93.73,25,140.66.92,5.26,2.79,10.35,5.63,20.59,26-27.26,47.28-54.57,73.46-75.74,48.28-39.05,97.94-76.82,149.8-110.91,80.93-53.21,169-93.74,255.83-136.36a451.55,451.55,0,0,0,52.94-31c-29.55-1.26-54.36-12.5-79.2-26.29-34.48-19.13-29.13-73.75-8.05-93.28,6.44-6,14.74-9.92,22.19-14.8l-2.79-5.35c-15.34,5.43-30.84,10.44-46,16.37-67.71,26.51-135.3,53.32-203,79.79-2.69,1.06-6.28-.17-9.46-.34,1.16-3.42,1.31-8.6,3.67-9.95a208.31,208.31,0,0,1,29.74-14.38c62.35-23.68,125.22-46,187.16-70.71,62.87-25,128.63-33.26,195.18-38.73,70.39-5.78,140.44-1.27,210.49,5.5,26.92,2.6,53.94,4.24,81,5.56,2.86.14,7.49-4.26,8.75-7.54,11.82-30.62,30.27-56.12,55.13-77.66,39.72-34.43,85.73-48.65,137.58-45.4,87.78,5.49,152.18,49.83,187.56,127.89,33.39,73.66,22.94,154.54-45.27,215-2.25,2-4.24,4.46-6.81,5.85-3.81,2.07-8,3.36-12.07,5,1.8-4.49,2.6-9.86,5.6-13.31,8.84-10.18,19.48-18.86,27.75-29.43,44.55-56.91,47.1-119.14,18.27-182.73-38.29-84.44-139.93-140.9-245-108.79-49,15-87.07,49.07-107.71,98.62-1.69,4.05-3.43,8.09-4,9.52,46,12.36,92.77,21.9,137.3,37.68,45.41,16.09,83.52,45.47,116.56,85l33.73-53.8c-18-21.6-36-40.41-50.78-61.46-16.32-23.28-13.41-51.36,3.81-69.16,15.1-15.61,41.86-16.21,58.65-2.11,17.92,15.06,24.45,36.27,26.63,57.27,3,28.79,1.05,58.1,1,87.19,0,2.78-1.92,5.56-2.71,7.69L1832.6,358l-6.71,5.47c2.38,4.34,3.86,9.61,7.28,12.84,10.93,10.38,5.23,16.55-4.85,21.38-14.31,6.85-28.9,13.11-43.24,19.56C1816.51,478,1837.3,539.6,1820.75,609l5.39-.86V594.56c62,22.36,119.69,3.38,177.35-15.37v30.16c-9.65-8.37-20.35-11.66-33.13-8.2-19.35,5.24-38.93,9.63-58.27,14.94-10.65,2.92-18.5,8.71-19.14,21.45-1.57,31.48-16.27,57.24-35.6,81.15-5.75,7.11-10.87,8.4-19.3,5.6-20.32-6.75-28.12-4.27-41.63,12.9-27.29,34.68-54.17,69.67-81.34,104.45q-54.46,69.69-109.28,139.11c-3.78,4.76-10.13,7.45-15.21,11.2-3.9,2.88-7.81,5.76-11.47,8.93-6.22,5.4-12.25,11-19.24,17.35l41.61,141.12,142-57.89c-5.65-4.84-9.21-8.15-13-11.12-14.25-11-29-21.47-42.65-33.14-3.77-3.21-4.55-9.92-6.7-15,18.91,10.11,33.92,21.41,49.13,32.45,9.09,6.6,18.75,18.17,27.68,17.75,10.37-.5,20.36-11.5,30.28-18.29,16.81-11.49,16.46-12.5,4.68-28.85-11.18-15.53-21.22-31.87-31.76-47.85l4.68-3.1c18,24.58,35.93,49.17,56,76.63,5.83-1.51,17.51-2.23,26.68-7.39,21-11.84,43.84-8.06,65.75-9.7,29.61-2.23,59.48-.86,89.25-1v9c-18.89.09-37.8-.22-56.65.65-3.52.17-6.81,5.11-10.21,7.85,3.81,1.62,7.89,5.07,11.38,4.54,18.58-2.79,37-6.58,55.48-10V1083c-9.91,3.51-19.68,9.33-29.76,9.94-12.13.72-19.68,3.22-26.87,14.33-4.64,7.18-17.67,14-25.76,12.87-21.92-3.17-43.21-10.71-64.75-16.52l4.49,6.94,17.81-17.62-6.55-8c-34-7.72-60.35,13.2-92.43,23.78,6.06,5.34,8.71,8.45,12,10.48,42.63,26.14,84.64,53.4,128.3,77.67,26.49,14.73,55.58,24.8,83.5,37v15.08c-6.72,4.38-13.85,8.23-20.09,13.21-54.78,43.69-110.61,86.16-163.75,131.76-64.76,55.58-125.22,115.68-173.21,187.05-11,16.33-22,32.63-34.54,51.19,74.3,2.07,141.29-15.44,207.3-36,67.08-20.89,126.62-57.37,184.29-96.82Zm-564.81-273c-43.93,7.06-86.85,14.09-129.81,20.76-9.35,1.45-11.55,7.68-13.47,15.42-12.31,49.47-14.55,98.64-.3,148.4,12.83,44.79,31.94,85.06,67.06,117.17s75.21,53.71,120.9,67.37c34.84,10.41,69.62,19,105.86,20.87,4.37.22,10.45-2.48,13.16-5.88,7.13-9,12.24-19.49,19.22-28.59,27.75-36.19,54.15-73.61,84.27-107.74,65-73.63,141-135.25,218.18-195.5,20-15.6,39.58-31.7,61-48.86-18.1-8.44-34.88-15-50.42-23.73-50.21-28.25-101-55.78-149.4-86.83-18.68-12-35-14.76-54-7.6-35.66,13.48-70.81,28.32-106.52,41.65-11.78,4.4-16.11,9.57-11,22,2.71,6.56,2.69,14.25,4,22-15.68.35-13.64-11.25-16.25-18.94-2.5-7.39-3.52-14.89-14.92-10.52-37.9,14.57-76.08,28.4-113.94,43-3.75,1.45-6.56,6.3-9,10.11-8.77,14-17.17,28.22-25.71,42.35l-5.63-2.35C1434.29,1264.08,1436.57,1252.25,1438.68,1241.29Zm137.51-252.07c-2-11.32-3.91-19.33-4.69-27.45-4.13-43.33,16.23-78.08,41.6-109.76,44.82-56,91.47-110.48,136.91-166,15.36-18.76,29.36-38.64,44.48-58.66-11.83-3.39-20.28-6.49-29-8.2-68.23-13.4-129.57-40-181.19-88.26-37.47-35-63.13-76-75.81-125.57-8.21-32.08-10.24-64.15-.91-97.47l-244.67-13.7c78.21,104.44,96.31,293.76,58.89,444.5,57.28,24.21,111.49,53.57,155.3,99.61,44.4,46.67,63.13,105.39,79.38,168.79Zm14.66,174.41c-5-17.38-9.35-33.28-14.06-49.09-4.44-14.89-9.25-29.66-13.82-44.51-4.23-13.77-17.71-25-11.67-41.65.28-.78-.4-1.93-.7-2.89-8.3-26.8-14.65-54.41-25.43-80.17-11.91-28.46-24.05-58.29-43.08-81.89-21.67-26.89-49.1-50.41-77.67-70.1-26.82-18.49-58.39-30.07-89-45.23-4.66,9.54-6.87,17.1-11.49,22.66-4.49,5.38-11.64,12.43-17.29,12.14-11-.56-15.54-10.46-14.33-21,.85-7.34,4-14.41,6.13-21.6-5.45,1.85-8.72,5.35-12.36,8.4-13.79,11.51-27.35,23.36-41.82,34-3.79,2.77-13.33,3.84-15.43,1.46-4.35-4.94-5.48-12.71-7.93-19.32l4.93-2,11.53,14.83,38.86-35.21-2.61-4.9c-10.92,0-21.94-.94-32.76.15-79.36,8-149.16,41.07-215.22,83.45-3.81,2.45-5.5,8.21-9.87,15.1,6.47-2.47,9.24-3.51,12-4.58,23.91-9.37,31.51-4.13,34.2,21.29.88,8.32,4.59,17.08,9.31,24.1,6.66,9.89,15.36,18.43,23.37,27.39,11.93,13.33,22.76,28,36.34,39.44,22.54,18.93,49.27,33.32,70,53.86,57.6,56.94,85.1,126.69,79.36,208.32-1.1,15.65-3.59,31.19-5.47,47,33.87.94,33.88,1,44.91-26.25,19.67-48.55,52.15-86.67,97.2-112.7,41.21-23.8,86.92-35.83,133.74-43.38a4,4,0,0,1,3,.81l-57,132.91,4,3.34ZM464.56,854.93c-16.24-15.53-29.77-27.88-42.63-40.91-17.24-17.45-33.79-35.58-51-53.06-4.2-4.26-12.21-11.22-14.42-9.94-16.11,9.32-37.58-1.24-51.45,14.41a10.31,10.31,0,0,0-1.24,2.73c-9,20.1-20.58,39.48-26.52,60.45-10.19,36-32.61,72.94-.33,109.39q49.95,125.37-.15,250.69c-10.63,26.48-24.54,51.63-35.65,77.94-3.68,8.72-6.14,19.73-4.27,28.67,5.63,26.94,14,53.29,20.58,80.06,2.76,11.32,8.76,14.8,20.11,15.43,57.71,3.17,114.07-5.12,170.32-16.84,16.49-3.43,26.88-12.88,36.79-23.69L327,1298.71c-.3,1.88-.95,6-2.2,13.89l-12.34-15.51c-3.69,11.58-8.17,5.65-11.92-1.19l-13.32,9.39c2.53-9.19,4-14.46,5.37-19.53-16.07-9.11-15.63-27.34.69-47.58,2.42,4.34,4.78,8.55,7.56,13.54L328,1232.48c.9,1,1.79,2.06,2.69,3.08l-9.82,17.79c46.71,5,62.89,11.65,68.33,28.41l-63.17-19.35c5.89,18.45,11.81,28.75,26.71,33.07,37.54,10.89,74.68,23.12,112,34.73,11.7,3.65,23.47,7.06,35.44,10.64-2.19,7.32-3.83,12.8-6.56,21.9,51.5-18.38,103-12.84,153.42-19.46a189.3,189.3,0,0,0-30.87-3.7c-31.6-1-63.21-1.75-94.82-2.38-10.44-.21-18.74-2.47-20.67-14.72-.61-3.85-2.94-7.44-4.55-11.12-30.9-70.6-42.73-144.42-32.57-220.68,12.33-92.52,50.29-174.9,106.51-248.88,8.1-10.66,10.81-20.47,8.26-33.08-4.17-20.6-7.67-41.34-11.32-62-6.29-35.69-12.47-71.39-19-108.61C528.72,655,510.83,670.18,493.5,686c-2.82,2.58-3.89,7.78-4.51,12-5.69,38.18-11,76.42-16.67,114.6C470.43,825.28,467.72,837.85,464.56,854.93Zm120.19-3.16C574.62,866.51,566,878.6,557.84,891c-44.7,68-70.75,143.08-77.67,223.74-5.89,68.57,8.93,134.66,34,198.56,3.59,9.13,8.72,11,17.88,11.59,97.61,6,195.28,11.2,289.92,39.84,19,5.74,39.89,5,59.91,7.19q1.44-3.32,2.9-6.62c-4.57-3.26-8.76-8.51-13.76-9.44-33.76-6.28-65.27-16-94-36.85-52.41-38.08-73.48-90.26-77.23-152.3-.57-9.45-2.56-19.62-6.9-27.87-14.36-27.28-27-54.75-29.32-86.17-3.23-44.39,4.53-86.83,20.39-128.13,9.86-25.7,19-51.68,28.93-77.33,4.43-11.39,12.5-13.63,22.62-6.24s20.43,14.58,30.27,22.33C778.93,873.66,791.72,884.48,807,897c-1.5-14.35-2.45-25.7-3.93-37-3.66-27.89-1.86-56.92-21.68-81-5.85-7.12-7.5-18.52-9-28.27-3.2-21.53-5.06-43.25-7.62-66.24-4.6,2.75-8.91,5-12.86,7.76-53.71,37.46-102.46,80.4-145.44,130-7.84,9-10.12,17.41-7.91,28.59,6.13,30.95,11.84,62,17.32,93.07.44,2.46-2.13,5.45-3.31,8.19-2.23-1.55-5.25-2.64-6.5-4.76-1.71-2.93-2.26-6.6-3-10C597.21,910,591.36,882.59,584.75,851.77ZM1591,1643.06c-8.07-1-13.48-1.82-18.91-2.38-77.39-7.89-149.7-29.75-209.34-81.89-67.16-58.71-92-135.23-87.25-222.46,1.31-23.77,5.76-47.36,8.84-71.6-3.4-.23-6.87-.35-10.31-.73-16.45-1.81-25.52,4.4-29.17,21.64-2.41,11.43-9.19,22.15-15.08,32.6-26.92,47.71-63.13,87.79-103.29,124.59-6,5.51-11.17,12-17.27,18.62,39.59,28.11,74.65,57.63,100.2,97.36,6.27,9.75,7.78,17,4.28,27.53q-15.35,46.11-29.14,92.74c-4.64,15.81,2.15,33.15,16.73,40.41,25.49,12.69,51.61,24.17,77.76,35.49,55.5,24,112.74,42.12,173.32,47.45,17.42,1.54,35.51,3.56,52.43.53,18.93-3.39,36.87-12.27,55.93-19-16.41-25.67-11.59-53.34,1.75-80.92C1571.77,1683.75,1580.85,1664.35,1591,1643.06ZM1006,805.05c16-8.84,31.47-17.88,47.38-26.06,53.39-27.47,108.85-48.61,169.3-54.19,25.63-2.37,44-16.39,54.33-39,6-13.16,7.87-28.23,12.64-46.44l-58.92,6.94c11.08-11.48,19.31-20.64,28.2-29.1,14.25-13.56,22.17-29.69,21.08-49.51-1-18-2.23-36-4.12-54a399.35,399.35,0,0,0-28.41-111.32c-5.57,3.72-9.56,6.56-13.7,9.13-46,28.49-90.94,58.83-138.21,85C1018.87,538.91,940.31,578,863.17,619.7c-29.87,16.14-58,35.55-85.17,52.41,1.23,21.52,1.78,40.79,3.59,59.94,1.84,19.52,5.91,38.57,19.27,56.46,5-65.25,51-94.39,99.37-94.84C964.62,693.07,994.85,725,1006,805.05ZM650.3,1511.31c-9.18-9.18-17.57-16.41-24.6-24.78-31.29-37.24-62-75-93.55-112-3.7-4.33-12.08-7.56-17.72-6.84-26.87,3.38-53.39,8.37-74.22,28.36-6.84,6.55-15,11.67-22.67,17.4-31.83,23.93-61,50.47-84.41,83-7.81,10.87-10,19.21-.19,31.46,32.85,41.15,63.76,83.83,96.25,125.28,7.39,9.42,18.11,16.24,28.1,25,4.46-10.4,7.37-18.4,11.23-25.89,5.16-10,13.63-19.18,24.78-14.35,6.74,2.91,13.14,13.7,14.1,21.62,3.34,27.65,4.25,55.6,6.16,84.59a80.61,80.61,0,0,0,9.6,3.26C607.7,1766.57,691,1763.65,770.75,1728c73-32.67,98.47-98.86,65.26-170-31.07-66.55-91.7-78.19-149.45-48,17.42,8.9,38.59,16.19,55.45,29.12,25.62,19.64,44.18,48.34,37.89,80.53-8.84,45.25-41.9,94.58-111.66,101-64.1,6-121.92-63.82-92.88-130.89C590.43,1554.92,613.32,1527.68,650.3,1511.31ZM1103,1851.4c24.46-25.84,30.38-54.94,39.66-82.29,1.17-3.46-3.34-10.77-7.19-13.69-14.61-11.07-18.32-19.43-13-34.33,5-14.19,18.74-22.84,34.21-21.39,4.78.45,9.51,1.3,17.45,2.41-1.87-18.55-1.11-35.51-5.58-50.95-14.48-50-44.86-90.22-82.35-125.45-11.05-10.39-20.9-25.82-39.79-10.86l8.52-16.11c-46.56-31.34-93-61.08-147.91-82.5C946.06,1575,1013.45,1716.87,1103,1851.4Zm138.16-594.65c51.73-178.64-110-338.78-250.71-329.63,0,24.61,1.14,49.21-.4,73.64-1,16.62,5.72,24.64,19.55,32.54,48.3,27.58,80.17,68,86.41,124.61,2.42,22,.39,44.41.39,68.18,5.15,1.59,12.62,4.6,20.38,6.16C1157.92,1240.57,1199.15,1248.52,1241.14,1256.75ZM991.88,1037.58c-2.58,19.17-3.35,37.93-7.83,55.74-14.09,56-36.53,88.68-97.35,94.07-18.37,1.63-21.36,4.43-19,22.76,5.39,41.24,11.69,82.35,17.57,123.52,1.51,10.6,6.55,14.95,18.14,14.54,46.89-1.66,88.09-18.26,124.33-47,21.39-17,37.89-38.33,47.61-65.16l-15.77-7c-7.86,13.56-17.49,24-34,19.85-14.12-3.53-23.43-13.48-27.31-27.42-1.23-4.39.83-9.7,1.39-14.59,8.89,9.47,12.59,20.06,19.94,26.41,9.23,8,20.16,6.3,29.46-6.44-7.18-3.74-12.92-7.75-19.29-9.86-25-8.25-25.73-24-21.89-45.52,3.41-19.14,14.33-28.78,29.68-28.4s27.8,11.85,29.82,30.44c1.54,14.1.31,28.49.31,44.85l12.92,3.56C1103,1163.16,1069.63,1068.92,991.88,1037.58Zm-97.23,323.09-3.2,4.23c4.07,2.53,7.85,6.24,12.29,7.36,12.61,3.2,25.75,4.43,38.21,8.06,51.32,14.93,100.08,35.82,144.08,66.49,10.24,7.14,16.4,4.94,24.2-2.8,36.72-36.42,74.51-72,101-117,11.46-19.5,21-40.16,30.72-59l-153.48-28.27C1048.6,1320,980.66,1354.85,894.65,1360.67Zm-16.88-15.76-36-207.78-28.69,16.73c-3.83-16.77,3.94-25.57,14.54-33.64,4.29-3.27,10.38-9.06,9.88-13-3.71-28.72-8.87-57.26-13.55-85.71-49.07,4.49-118.08,94.84-114.23,147.51C717.28,1272.57,788.31,1335.87,877.77,1344.91ZM1815.3,532.34c-7.1-23.84-12.11-46.85-20.73-68.43-24.54-61.42-75.84-94.74-132-122.83-22.25-11.13-35.53-1.88-42.5,17.72-13.22,37.15-18.85,75.65-8.74,115,5,19.68,15.3,36.07,35.31,41a328.12,328.12,0,0,0,65.26,8.72c31.93,1.17,64.27-3.65,94.88,9.91C1807.91,533.93,1809.63,533.12,1815.3,532.34ZM1626.74,328.42c-5.21-1.64-9.74-3.63-14.48-4.46-25.67-4.5-51.43-8.46-77.07-13.15-12-2.19-17.24,1.66-18.87,14.08-8.16,62.16,8.42,117.45,46.61,166.18,33.46,42.71,76.08,73.82,126.72,93.71,32.74,12.87,65.59,24.69,101.62,24.81,13.46,0,21.65-5,23.69-17.49,1.82-11.18,1.17-22.77,1.64-34.17.42-10.11-4-16.61-14.33-17.59q-35.76-3.37-71.58-6.11c-26.45-2-53.28-1.81-79.25-6.47-12.52-2.24-25.62-11.36-34.71-20.93C1583.11,471.44,1589.26,369.53,1626.74,328.42ZM662.56,1711.28c34.82-2.17,63.62-16.71,84.5-44.72,21.85-29.3,32.79-62,9.22-94.53-12.5-17.26-30.52-31.8-48.79-43.15-11.54-7.17-28.71-10.06-42.39-8.1-39.92,5.71-61.36,35.67-77.43,68.85C557.42,1652.1,611.6,1714.46,662.56,1711.28Zm242-859.59c32.23,2.69,58-15.13,83.56-33.11,2.68-1.89,4.25-6.68,4.64-10.31,5.8-54.83-26.39-98.37-80.8-104S808.76,736.59,813.74,798c.51,6.34,4.5,13.53,9,18.21C844.68,838.7,871.25,851.4,904.56,851.69Zm924.38-226.21c-8.54-3.22-17.79-3.21-26,7.95-20.7,28.23-41.38,56.53-63.41,83.72-38.51,47.52-78.69,93.7-116.79,141.54-14.72,18.5-25.67,40-39,61.27l38.65,18.41a54.06,54.06,0,0,0,4.32-4.72c53-67.41,106.26-134.59,158.66-202.46,13.5-17.47,28.59-25.38,50.46-19.69,4,1,10.66.09,13.26-2.64,22.44-23.54,31.59-52.17,30.91-85.34l-23.85,1.61c-3.32,10.62-5.37,19.42-9.16,27.4-.76,1.61-11.33,1.29-11.85-.15C1832.27,644.56,1831.15,636.11,1828.94,625.48ZM229.67,1262.89c46-87.94,79.24-174.2,51.75-272.05-7-25-13.14-50.33-29.77-75C219.92,1030.94,203.81,1143.35,229.67,1262.89ZM1297.49,634.36c4.94,35.58-5.85,64.56-32.36,87.94,20.44,7.38,21.77,6.73,29.06-11.87,1.94-4.93,4.65-9.55,7-14.32l2.8,1.33c-2,10.13-4,20.26-6.13,31.15l13.74,4.12c1.22-9.63,2.36-17.9,3.3-26.2,5.21-45.72,14.1-91.4,14.72-137.19,1.09-80.16-17.34-157.26-50.46-230.42a87.08,87.08,0,0,0-21.24-28.61c-4.56-4-15.18-4.35-21.44-2-3.47,1.31-5.49,11.79-4.77,17.72,1.08,8.78,4.48,17.5,8.09,25.73,27.38,62.4,46.72,126.73,51.23,195.25,2,29.76.7,57.38-23.8,78.63-.9.78-.85,2.65-1.62,5.29Zm294,1246.89c-24.14-19-45-42.21-76.69-46.7-4.63-.65-10.91-5.44-12.32-9.68-3.08-9.29-9.46-8.34-16.52-9-24.93-2.35-50.55-2.37-74.57-8.51-47.44-12.15-94.73-25.81-140.66-42.7-31.12-11.44-59.66-29.82-89.71-44.34-9.15-4.42-19.91-9.55-29.19-8.39-7.31.91-14.82,10.13-19.47,17.42-1.74,2.74,2.92,13.47,7.08,15.44,33.46,15.85,66.85,32.22,101.53,45,37.52,13.81,76.19,24.71,114.77,35.4q90.43,25.07,181.5,47.88C1554.88,1877.49,1573.38,1878.61,1591.48,1881.25Zm-780.83-1058c7.74,61.93,15,120,22.39,179.19,19.67-2.12,36.94-4.91,54.29-5.44,8.35-.26,11.1-3.46,13.82-10.2,8.82-21.8,17-44,27.77-64.83,13.49-26,27.18-52.35,53.91-68.59,4.61-2.79,6-10.82,8.95-16.43C928.48,873,870,873.4,810.65,823.27Zm494.15,427.55c2.48-.12,4.9.09,7.17-.4,38.61-8.33,77.14-17.05,115.84-24.93,10.82-2.21,16.39-6.78,18.37-18.11,7.1-40.63,24.88-75.83,55.52-104.09,4.6-4.25,8.48-9.27,13.47-14.79C1431.32,1085,1311.08,1178.09,1304.8,1250.82ZM864,1149.17l-5.23,2.23c2.36,10.17-.16,25.87,14,26.66,32.72,1.84,61.51-9.28,80.4-37.87,20-30.24,25.32-64.94,26.41-100.25.15-4.75-5.52-11.85-10.29-14.14-12.09-5.82-25-10.2-37.95-13.92-25.07-7.21-25.16-6.86-34.5,17-.91,2.33-2.2,4.53-3,6.9-6.69,20.87-13.92,41.6-19.47,62.78-1.26,4.8,1.76,13.31,5.72,16.38a129.75,129.75,0,0,0,29.91,16.89c11.66,4.8,10.84,12.52,10.47,17.73-9.14-2-16.55-3.46-23.84-5.36a96.64,96.64,0,0,1-13.46-4.79c-4-1.71-7.75-4-15.42-8,14.92,24.27,14.88,32.1,2.75,38C868.42,1162.78,866.23,1156,864,1149.17Zm310.13-763.49c.91-44.3-30.85-71.15-71.45-72.16-31.6-.78-49.13,22-64.35,45-5.75,8.66-7.76,22-6.62,32.63,3.48,32.44,35.37,55.44,71,59.53,17.77,2,37.29,7.9,50.86-11.34C1165.05,423.12,1174.88,406.44,1174.17,385.68ZM257.51,1779.89c-11.2,3.48-26.68,6.28-40.28,12.94-25,12.26-29.82,45.92-9,62.82,32.43,26.36,71.29,40.6,110.77,51.81,14.41,4.1,33.27,7.37,44.65-8.27,11.07-15.21,3.25-31.29-4-45.51C339.25,1813.53,308.74,1786.33,257.51,1779.89Zm16.71-149.3c29.16,18.33,54.81,34.77,80.88,50.51,4.44,2.68,12.8,5.13,15.75,2.91,13.84-10.4,26.41-22.47,40.49-34.88l-97.5-126.33C300,1560.41,287.33,1594.92,274.22,1630.59Zm430.29-502.25c6.94-12,14.73-23.53,20.67-36,17.87-37.46,46.53-63.6,84.07-79.68,11-4.71,14.22-10.27,9.9-20.12-2.62-6-6.19-13-11.4-16.23-25.58-15.78-51.76-30.6-77.94-45.39-9.75-5.51-20.09-10-30.93-15.31-6.65,21.92-12.66,41.72-18.7,61.65,45.11,9.81,55.49,16.23,70.3,43.05C728.39,1053.11,705.88,1086.16,704.51,1128.34ZM1070,1497.15c51.6,39.93,88.77,88.89,110.4,151.36,7.18-21.82,14.34-41.78,20.06-62.14,1.72-6.11,1.47-14.42-1.38-19.9-22.53-43.23-61.63-69.57-101-99.25Zm-648.3-107c-50,15-101.64,16.06-157.24,11.06l48.69,95.47Zm-53.39-653c36.74-20,71.82-38.83,106.44-58.48,3.27-1.85,5.52-9.16,5-13.5-2.32-17.86-16.54-27.5-39.34-25.89-38.15,2.69-63.67,26.07-85.2,54.88-1.94,2.58-2.19,7.85-1,11.06C357.52,714.58,362.05,723.44,368.28,737.23Zm795.58-292.34c19.61-12.82,36.44-23.21,52.61-34.53,26.34-18.45,25.55-18.47,14-48.82-7.62-20.09-20.36-40.47-1.22-65.33L1134,306C1181.83,335.55,1201.79,375.06,1163.86,444.89ZM478,699,374.4,750.1l84.44,85.77C465.22,790.19,471.43,745.71,478,699ZM275.61,1644.39c-13.54,28-6.49,100.75,14,123l77.27-64.79ZM1827.75,325.75l-2.19,5-39.77-23.36-4.21,7.14,62.27,47.13c-.76-17-.51-28.55-1.94-39.9-2.81-22.33-5.24-44.85-10.33-66.71-3.74-16.06-17.07-24.28-33.27-26.29-12.39-1.55-23.26,2.47-29.87,13.41-8.81,14.58-6.07,30-.32,44.79,2.81,7.24,6.87,13.07,17.11,9.55,3.74-1.29,10.08,1.07,13.61,3.83C1808.92,308.26,1818.17,317.22,1827.75,325.75ZM725,846.84c-7.08,17.36-12.83,32.1-19.11,46.61-3.83,8.85-.91,12.84,7.43,17.32,28.61,15.36,56.63,31.82,84.78,48,5,2.86,9.48,6.51,17,11.74-3.7-32,.46-63-32-79.73-3.05-1.56-5.36-4.49-8.16-6.59C759.1,872.3,743.21,860.45,725,846.84Zm175.16,535.79c-2.56,9.73,1,15.83,10.13,20,16.35,7.53,32.89,14.87,48.48,23.81,35,20.09,69.53,41.12,105.29,62.4l24.53-26.5C1053.07,1431.61,946.1,1386.46,900.17,1382.63ZM378.06,1690l-.8,6.47c34.4,12.94,68.74,26,103.32,38.48,2.44.88,7.88-2.38,9.9-5.18,17-23.66,8.87-50,6.78-75.48-.69-8.42-8.47-9.49-12.84-3.32-4.63,6.53-8.21,15-8.77,22.93-.68,9.52-5.93,13.52-13,12.86a54.7,54.7,0,0,1-23.27-8.21c-8.14-5.2-14.76-12.78-22.14-19.42ZM33.94,1347.72c12.71,17,25.3,33,37,49.62,15.63,22.16,17.41,23.94,43.49,17.42,24.82-6.2,49.16-14.35,73.71-21.64l-.55-4.11c-6.16-1.45-12.58-2.23-18.43-4.48-32.14-12.34-65.13-23.07-95.76-38.46C58.26,1338.44,47.54,1336.55,33.94,1347.72Zm659.86-230.6c2.38-10.52,2.87-19.72,6.51-27.42,9.59-20.25,20.13-40.09,31.2-59.57,3.92-6.9,4.69-10.87-.28-18.26-11.94-17.71-31.56-17-48.44-22.6-1.61-.54-7.71,5.82-8.17,9.43C669.44,1039.17,674.07,1078.24,693.8,1117.12ZM977.43,923.59c-15.95,3.08-33.66-5.27-42.4,11-10.27,19.17-16.9,40.29-25.33,61.09l67.73,17.93Zm15-70.8,2.3,4.13,21.75,4.56c-24.81,2.57-30.93,17.65-24.72,49.64l95,19.67-56.27-60c.61-7.25,1.13-14.13,1.79-21,1-10.43-4.65-14.64-13.5-11.36C1009.47,841.9,1001.16,847.91,992.43,852.79ZM856.79,1110.47c12.05-35.77,23-68.31,35.17-104.36-16.48,2.27-30.55,4.29-44.65,6.12-9.7,1.27-12.13,6.7-10.31,15.75,4.82,24,9.21,48.1,14,72.11C851.5,1102.58,853.54,1104.77,856.79,1110.47ZM108.53,644.2l72.8-58-.81-2-99.6,27.7Zm947.54,569.45c0-16.24,1.92-29.26-.48-41.44-3.11-15.83-18.62-21.9-29.36-13.61-15.22,11.75-13.26,36,3.88,44.56C1037.12,1206.67,1044.67,1209.1,1056.07,1213.65Zm401.38,1.44c19.27-29.35,28.76-63.21,41.34-95.72C1474.29,1146.39,1461.34,1178.59,1457.45,1215.09Zm-477-347.34L977,866.63l-32.41,46.23h32.37C978.15,897.08,979.28,882.42,980.42,867.75Zm604.13,67.37c-.61,10.22-2.32,19.17-1.22,27.76.68,5.39,5.59,10.24,8.6,15.33,4.09-4.54,10.22-8.5,11.72-13.77,1.8-6.33,1.48-14.7-1.4-20.44C1600.21,939.94,1592.39,938.79,1584.55,935.12Zm273.19,134c.15,1.41.31,2.82.47,4.23a78.4,78.4,0,0,0,57.55.41c2.58-1,4.27-4.35,6.37-6.61-1.62-1.49-3.37-4.38-4.84-4.25C1897.42,1064.71,1877.58,1067,1857.74,1069.1ZM339.52,711.69l-20.28,31.39L355,739.29C349.5,729.45,345,721.37,339.52,711.69Zm1595,377c-7,11.94-30.49,13.49-38.83,4.65a16,16,0,0,0-10.48-4.66c-2.12,0-4.27,4.38-6.27,6.64,14.24,5,26.26,9.54,38.53,13.31C1931.41,1113,1938.73,1105.23,1934.52,1088.73ZM1306.58,743.81c-8.32,2.12-14.88,1.83-17,4.75-3.76,5.23-4.83,12.39-7,18.75,4.21.61,11.11,3.06,12.18,1.5C1299,762.56,1301.54,755.06,1306.58,743.81Z"/><path d="M2003.49,856.71c-46.55-6.17-91.41-18.5-132.8-40.77-13.79-7.43-22.7-5.27-32.48,4.86-5.47,5.66-11.84,10.45-18.75,16.45,39.84,24.63,80.65,43.14,125.23,52.72,19.56,4.2,39.2,8,58.8,12v9c-37.84.33-73-12.06-107.76-24.56-24.38-8.77-47.25-21.8-70.73-33.06-8.43-4-16.66-8.48-26.14-13.32,1.94-2.77,3.3-6,5.71-7.92,17.65-14,35.25-28.13,53.53-41.3,4-2.91,10.7-2.14,16.16-3.06l1.11,4.74c-2.4,2.84-4.81,5.67-7.73,9.11,32.81,20.77,69.26,28.44,105.06,37.75,10,2.62,20.51,3.55,30.79,5.26Z"/><path d="M2003.49,214.18,1926.88,181c.4-1.82.79-3.64,1.19-5.46,12.54,1.86,25.17,5.64,37.59,5,12.72-.62,25.23-5.54,37.83-8.58V184l-26.34,5.46,26.34,15.66Z"/><path d="M2003.49,1043.74c-35-.19-70,7.42-104.88.63l-.22-6.25,105.1-3.43Z"/><path d="M2003.49,651.58c-7.35,1.56-12.37,4.3-13.06,13.46-.38,5-5.49,9.54-8.66,14.62-1.47-16.58-2.79-31.48-4.43-50l16.2,20.16,10-1.23Z"/><path d="M2003.49,690.8c-8.43-1-16.85-1.89-25.27-2.9-20.41-2.45-24.41-7.71-19.5-27.55,1.63-6.61,5.41-12.69,9.24-21.34,2.44,4.56,3.42,5.69,3.19,6-17.68,27.28-6.76,39.61,32.34,39.71Z"/><path d="M1065.05,269.15c-4.07,8.2-6.83,17.47-12.46,24.41-18.77,23.16-51.18,30.49-78.83,19.09-23.65-9.74-31.08-34.32-16.8-55.53,17.77-26.41,57.79-36.76,85.7-21.84C1055.46,242.13,1063.67,252.24,1065.05,269.15Zm-64.89,41.22c13.33-6,28.11-10.15,39.49-18.77,7.12-5.4,13.75-18.46,12.18-26.43-1.73-8.79-11.73-18.37-20.55-22.82-16.9-8.55-34.14-3.46-49.94,6.05s-23.28,23.94-19.22,37C966,297.67,982.19,307.26,1000.16,310.37Z"/><path d="M1874.77,340.46c0,4.94,1.93,11.54-.51,14.4-2.81,3.28-9.49,3.25-14.48,4.66q2.81-10,5.63-19.95Z"/><path d="M200.37,249.79c39.75,1.77,76.25,12.52,102.56,46.11,35.82,45.73,25.6,126.21-37.88,151.59-43.39,17.35-87.41,20.11-129.5-1.83-48-25.05-60.41-62.45-52.17-110.9,7.66-45,34.93-73.28,89.11-82.88C181.32,250.31,190.46,250.48,200.37,249.79Zm-.63,202.27c18.48-4.1,37.48-6.62,55.33-12.58,58.35-19.51,75.54-86.29,40.6-135.41-29.61-41.6-94-55.77-145.94-35.06-28.69,11.43-48.51,31.35-54.91,61.15C79.91,399.53,127.55,453.25,199.74,452.06Z"/><path d="M1708.2,1359.24c2.33,59.37-64,125.4-141.66,109-60-12.69-80-70.37-56.41-121.84,25.86-56.27,111.19-82.49,164.26-51C1699.25,1310.13,1709.83,1330.12,1708.2,1359.24Zm-79.49-64.64c-52,1.68-93.26,19.55-109.59,60.52-15.32,38.43-2.5,82.93,38.94,97.88,58.07,21,123-18.91,137.32-76.11,8.92-35.67-4.85-63.66-38.25-76.44C1646.56,1296.41,1634.69,1295.77,1628.71,1294.6Z"/><path d="M1116.67,860.15c-.28-28.39,20.53-48.87,49.63-48.83,25.82,0,47,22.9,47,50.71,0,24.94-23.4,48.5-48.17,48.55C1137.36,910.62,1117,889.4,1116.67,860.15Z"/><path d="M408.1,867.39c-.24,18.66-18.55,36.31-37.52,36.18-21.95-.14-38.09-15.52-38.1-36.28,0-19.21,19.1-37.78,38.15-37.09C392.36,831,408.37,846.88,408.1,867.39Z"/><path d="M387.53,1107.35c-20,.05-36.63-15.92-37.14-35.67-.52-20.19,17.24-37.43,38.74-37.62,19.33-.17,35.93,17,35.72,36.89C424.63,1092.62,409.58,1107.29,387.53,1107.35Z"/><path d="M1793.93,556.32c-6.39,4-11.32,8.31-12.37,7.51-4-3-7.75-7.33-9.39-11.94-.61-1.7,6.54-8.44,7.34-8C1784,546.46,1787.56,550.52,1793.93,556.32Z"/><path d="M741.13,1592.17c-.29,22.13-17.14,39.53-37.58,38.81-18.85-.67-33.69-17.1-33.72-37.35,0-18.92,18.46-34.71,40.22-34.35C729.38,1559.6,741.39,1572.31,741.13,1592.17Z"/><path d="M1061.23,389.72c-.25-19.2,10.69-32.42,27.29-33,18.8-.62,35,14.13,34.81,31.66-.19,16.51-15.68,30.74-34.1,31.32C1072.27,420.27,1061.48,408.7,1061.23,389.72Z"/><path d="M276.54,1818.58c22.81-.11,34.93,12.46,34.23,35.51-.42,13.61-11.36,24-25.58,24.27-19.38.39-36.9-15.81-36.75-34C248.59,1827.68,258.39,1818.67,276.54,1818.58Z"/><path d="M213.9,410.42c-34.1.11-64-27.89-64.58-60.5-.49-27.1,26.72-51.44,57.85-51.75,37.82-.37,68.3,25.22,68.26,57.32C275.4,389.21,251.78,410.29,213.9,410.42Z"/><path d="M1596.54,1376.12c-19.61.31-33.56-12.5-33.48-30.74.07-18.86,15.14-33.72,34.68-34.23,17.49-.45,35.33,14.45,35.7,29.83C1633.83,1357.12,1614.17,1375.84,1596.54,1376.12Z"/></svg>