<svg id="Layer_1" data-name="Layer 1" xmlns="http://www.w3.org/2000/svg" xmlns:xlink="http://www.w3.org/1999/xlink" viewBox="0 0 261.76 146.87"><defs><style>.cls-1{fill:none;clip-rule:evenodd;}.cls-2{fill:#171d25;}.cls-3{clip-path:url(#clip-path);}.cls-4{fill:url(#linear-gradient);}</style><clipPath id="clip-path"><path class="cls-1" d="M53.44,4.8C56,5,56,5,58.78,5.33c-.58,2-.58,2-1.09,4.22-3.6,1.72-3.6,1.72-7.12,3.52-2.8-.65-2.8-.65-5.46-1.1a41.09,41.09,0,0,1,1.78-4.06c3.27-1.62,3.27-1.62,6.55-3.11M37.13,10.55A22.28,22.28,0,0,1,40.51,10c-1,1.8-1,1.8-2.12,3.9-3.07,2-3.07,2-6.1,4.13a29.39,29.39,0,0,0-3.23-.15,35.49,35.49,0,0,1,2.68-3.58C34.37,12.41,34.37,12.41,37.13,10.55Zm84.76,7.09c2.46,1.87,2.46,1.87,4.84,3.8.92,2.35.92,2.35,1.75,4.84l-3.4,1.41c-2.65-2-2.65-2-5.39-4C119,21,119,21,118.25,18.48,120.17,18,120.17,18,121.89,17.64Zm-37.14-2c2.23,1,2.23,1,4.48,2,.2,1.93.2,1.93.34,4-2.25,1-2.25,1-4.55,2-2.39-1.17-2.39-1.17-4.71-2.26,0-2.08,0-2.08,0-4C82.57,16.47,82.57,16.47,84.75,15.64Zm-23.56-2c3.42,1.16,3.42,1.16,7,2.46-.25,3.26-.25,3.26-.41,6.74-4,2-4,2-8,4.14-3.61-1.56-3.61-1.56-7.06-3,.48-3.41.48-3.41,1-6.6C57.41,15.48,57.41,15.48,61.19,13.64ZM40.25,17.16c2.55.7,2.55.7,5.36,1.51-.66,3.1-.66,3.1-1.32,6.46-3.6,2.26-3.6,2.26-7.14,4.6-2.72-1.13-2.72-1.13-5.23-2.1.88-3.19.88-3.19,1.8-6.14C36.91,19.32,36.91,19.32,40.25,17.16Zm-15.7,5.92c1.4.21,1.4.21,3.09.54-1,2.82-1,2.82-2,5.85-2.8,2.38-2.8,2.38-5.46,4.8L17.41,33c1.15-2.79,1.15-2.79,2.35-5.33C22.08,25.35,22.08,25.35,24.55,23.08ZM47.29,32l7.06,3.35C54,39.56,54,39.56,53.77,44c-4,2.44-4,2.44-8,4.92l-6.92-3.82c.4-4.19.4-4.19.87-8.26C43.48,34.37,43.48,34.37,47.29,32ZM26.9,35.38C29.3,36.63,29.3,36.63,32,38c-.57,3.93-.57,3.93-1.06,8-3.3,2.5-3.3,2.5-6.44,5C22,49.31,22,49.31,19.73,47.78c.61-3.8.61-3.8,1.31-7.47C23.88,37.87,23.88,37.87,26.9,35.38ZM13.31,40.24c1.16.75,1.16.75,2.55,1.69-.78,3.5-.78,3.5-1.45,7.12-2.19,2.38-2.19,2.38-4.17,4.72-1.17-1.25-1.17-1.25-2.09-2.37.75-3.27.75-3.27,1.62-6.44C11.44,42.6,11.44,42.6,13.31,40.24Zm21,12.81c3.3,2,3.3,2,6.77,4.1-.17,4.63-.17,4.63-.29,9.35C37.09,69,37.09,69,33.57,71.32c-3.32-2.27-3.32-2.27-6.45-4.44.16-4.48.16-4.48.4-8.86C30.82,55.55,30.82,55.55,34.28,53.05ZM16.09,55.21c2.15,1.67,2.15,1.67,4.52,3.45-.27,4.22-.27,4.22-.45,8.49-2.63,2.23-2.63,2.23-5.05,4.42-2.15-2-2.15-2-4.07-3.87.21-3.94.21-3.94.53-7.84C13.72,57.57,13.72,57.57,16.09,55.21ZM5.86,57.93c.79,1.29.79,1.29,1.81,2.75-.33,3.66-.33,3.66-.56,7.39a42.61,42.61,0,0,0-2.42,3.82,22.58,22.58,0,0,1-1.33-3.2c.25-3.31.25-3.31.62-6.61A37.75,37.75,0,0,1,5.86,57.93ZM23.3,75.88c3,2.3,3,2.3,6.19,4.66.15,4.49.15,4.49.38,9l-5.72,3.75c-2.93-2.39-2.93-2.39-5.69-4.8-.28-4.16-.28-4.16-.47-8.39C20.54,78,20.54,78,23.3,75.88ZM8.75,75.62c1.76,2,1.76,2,3.76,4.14.2,4,.2,4,.51,8L9.84,90.79c-1.73-2.24-1.73-2.24-3.22-4.39-.35-3.57-.35-3.57-.58-7.21C7.27,77.45,7.27,77.45,8.75,75.62Zm25.79,22c3.58,2.46,3.58,2.46,7.32,5,.39,4.26.39,4.26.82,8.35-3.18,1.55-3.18,1.55-6.17,3-3.46-2.43-3.46-2.43-6.8-4.9-.6-3.91-.6-3.91-1.11-7.91ZM16.46,95.1C19,97.47,19,97.47,21.82,99.93c.59,3.87.59,3.87,1.28,7.63-2.07,1.11-2.07,1.11-3.88,2.12-2.48-2.44-2.48-2.44-4.77-4.85-.79-3.46-.79-3.46-1.47-7C14.6,96.53,14.6,96.53,16.46,95.1Zm103.08,24.63,3.44,1.43c-.56,2.08-.56,2.08-1.17,4-2.15,1.47-2.15,1.47-4.33,2.87-1.73-.44-1.73-.44-3.55-1,.44-2.06.44-2.06.84-4.26C117.19,121.29,117.19,121.29,119.54,119.73Zm-24.73,1.43c2,.9,2,.9,4,1.7-.27,1.93-.27,1.93-.57,3.74-2.12,1.1-2.12,1.1-4.24,2.13-1.94-.66-1.94-.66-4-1.4.12-1.84.12-1.84.24-3.82C92.55,122.36,92.55,122.36,94.81,121.16Zm-22.65,1c3.26,1.59,3.26,1.59,6.46,3.09,0,2.85,0,2.85,0,5.5-3.06,1.25-3.06,1.25-6,2.38-3-1.31-3-1.31-6.16-2.74-.22-2.64-.22-2.64-.42-5.46C69,123.61,69,123.61,72.16,122.18Zm-24.4-3c3.84,2.26,3.84,2.26,7.68,4.42.44,3.44.44,3.44.87,6.62-3.2,1.07-3.2,1.07-6.24,2-3.58-2-3.58-2-7.12-4.08-.75-3.11-.75-3.11-1.4-6.39C44.55,120.54,44.55,120.54,47.76,119.2Zm-20.08-3.73c3.13,2.39,3.13,2.39,6.38,4.74.84,3.23.84,3.23,1.68,6.19a41.45,41.45,0,0,1-4.25,1c-2.92-2.23-2.92-2.23-5.73-4.52-1.09-2.78-1.09-2.78-2.11-5.78C25.57,116.4,25.57,116.4,27.68,115.47Zm97.26,13.82a15.72,15.72,0,0,0,3.23.15A35.25,35.25,0,0,1,125.5,133c-2.63,1.92-2.63,1.92-5.39,3.77a19.89,19.89,0,0,1-3.45.56,31.8,31.8,0,0,0,2.12-3.89C121.92,131.41,121.92,131.41,124.94,129.29Zm-18.69,6.21c2,.46,2,.46,3.79.81-.61,1.51-.61,1.51-1.21,2.82-2.3,1.14-2.3,1.14-4.6,2.19-1.83-.13-1.83-.13-3.75-.38l.77-3C103.73,136.79,103.73,136.79,106.25,135.5Zm-21.74,1c3.48,1.15,3.48,1.15,6.84,2.16C91,141,91,141,90.69,143c-3.47,1.17-3.47,1.17-6.81,2.18-3.18-.75-3.18-.75-6.56-1.65,0-2,0-2,0-4.32C80.83,137.92,80.83,137.92,84.51,136.52Zm-23.05-.76c3.68,1.62,3.68,1.62,7.33,3.12.28,2.29.28,2.29.49,4.29-3.1.63-3.1.63-6.05,1.1-3.4-1.27-3.4-1.27-6.79-2.67-.61-2-.61-2-1.2-4.19C58.26,136.66,58.26,136.66,61.46,135.76Zm-20.59-3.67c3.35,2,3.35,2,6.76,3.88.82,2.18.82,2.18,1.61,4.08a31.7,31.7,0,0,1-4.47,0c-3.07-1.68-3.07-1.68-6.08-3.47a37.81,37.81,0,0,1-2.21-3.84A43.5,43.5,0,0,0,40.87,132.09Zm65.36-5.89c1.15.5,1.15.5,2.27,1-.16,1.09-.16,1.09-.32,2.11l-2.4,1.21-2.24-.79c.06-1.05.06-1.05.13-2.17C105,126.87,105,126.87,106.23,126.2Zm24.22-5.57a10.38,10.38,0,0,0,2.05.1,25.31,25.31,0,0,1-1.7,2.27c-1.67,1.22-1.67,1.22-3.42,2.39a12.07,12.07,0,0,1-2.19.36,21.35,21.35,0,0,0,1.35-2.47C128.53,122,128.53,122,130.45,120.63ZM105.26,15.94c1.82.79,1.82.79,3.66,1.64.16,1.58.16,1.58.28,3.27-1.84.8-1.84.8-3.73,1.66-2-1-2-1-3.85-1.84,0-1.71,0-1.71,0-3.3C103.47,16.62,103.47,16.62,105.26,15.94ZM41.43,76.59c3.35,1.27,3.35,1.27,6.87,2.63.6,4.26.6,4.26,1.27,8.6-3,2.84-3,2.84-5.79,5.59-3.4-1.53-3.4-1.53-6.62-3-.59-4.13-.59-4.13-1.1-8.17C38.67,79.44,38.67,79.44,41.43,76.59Zm13.94,25.5c2.85,2,2.85,2,5.83,4,.31,3.39.31,3.39.65,6.64-2.53,1.23-2.53,1.23-4.91,2.36-2.75-1.93-2.75-1.93-5.42-3.9-.47-3.11-.47-3.11-.87-6.29C52.92,103.51,52.92,103.51,55.37,102.09ZM49.66,61.26,55,64.48c-.14,3.64-.14,3.64-.23,7.35-2.89,1.92-2.89,1.92-5.65,3.79-2.61-1.78-2.61-1.78-5.07-3.49.13-3.52.13-3.52.31-7C46.94,63.23,46.94,63.23,49.66,61.26Zm6.85,24.41c2.09,1.25,2.09,1.25,4.27,2.58-.1,2.92-.1,2.92-.18,5.9l-4.54,3C54,95.77,54,95.77,52,94.39c.11-2.82.11-2.82.25-5.59C54.33,87.25,54.33,87.25,56.51,85.67Zm2.21-39.75,3.75,1.78c-.16,2.25-.16,2.25-.31,4.58C60,53.57,60,53.57,57.94,54.89l-3.68-2c.22-2.22.22-2.22.47-4.38C56.7,47.19,56.7,47.19,58.72,45.92ZM94,3.05c3.33,1.25,3.33,1.25,6.72,2.64A43.21,43.21,0,0,1,102,9.9c-3.09.74-3.09.74-6.29,1.65C92,9.93,92,9.93,88.44,8.44c-.28-2.29-.28-2.29-.56-4.3C91,3.51,91,3.51,94,3.05ZM69.42,28c2.29.78,2.29.78,4.68,1.66-.17,2.18-.17,2.18-.28,4.52-2.68,1.36-2.68,1.36-5.35,2.78-2.43-1-2.43-1-4.74-2,.32-2.29.32-2.29.67-4.43C66.88,29.22,66.88,29.22,69.42,28ZM96.91,132c1.15.51,1.15.51,2.27,1-.16,1.1-.16,1.1-.32,2.12-1.21.62-1.21.62-2.4,1.2-1.1-.37-1.1-.37-2.24-.79.06-1,.06-1,.13-2.16C95.64,132.67,95.64,132.67,96.91,132ZM67.68,114.53c1.14.51,1.14.51,2.26,1-.15,1.1-.15,1.1-.32,2.12-1.2.62-1.2.62-2.4,1.21L65,118c.06-1,.06-1,.13-2.17C66.4,115.21,66.4,115.21,67.68,114.53ZM73.28,2.2c3.25.74,3.25.74,6.55,1.63,0,2,0,2,.13,4.32-3.62,1.27-3.62,1.27-7.24,2.67-3.48-1.16-3.48-1.16-6.84-2.16.32-2.28.32-2.28.66-4.29C69.94,3.22,69.94,3.22,73.28,2.2Z"/></clipPath><linearGradient id="linear-gradient" x1="-10.62" y1="108.81" x2="83.26" y2="66.81" gradientUnits="userSpaceOnUse"><stop offset="0" stop-color="#0195ff"/><stop offset="1" stop-color="#00c9f3"/></linearGradient></defs><path class="cls-2" d="M257.12,93.65a2.41,2.41,0,0,0-1.92.79v-.72H254v5.57h1.3V96.47a1.48,1.48,0,0,1,1.56-1.68c.84,0,1.33.48,1.33,1.47v3h1.3V96.1a2.18,2.18,0,0,0-2.33-2.45m-7.39,4.6a1.75,1.75,0,1,1,1.66-1.75A1.62,1.62,0,0,1,249.73,98.25Zm0,1.11a2.86,2.86,0,1,0-3-2.86A2.82,2.82,0,0,0,249.73,99.36Zm-5.52-.07h1.3V93.72h-1.3Zm.65-6.49a.81.81,0,0,0,.84-.82.78.78,0,0,0-.84-.75.79.79,0,1,0,0,1.57Zm-2.09,5.26a1.17,1.17,0,0,1-.74.23c-.5,0-.77-.29-.77-.84V94.8h1.49v-1h-1.49V92.48H240v1.28H239v1H240v2.69a1.71,1.71,0,0,0,1.92,1.87,2,2,0,0,0,1.25-.37Zm-7.38.35c-.67,0-1.06-.3-1.06-.77s.24-.74,1.12-.74h1.35v.65A1.42,1.42,0,0,1,235.39,98.41Zm.18-4.76a3.92,3.92,0,0,0-2.36.69l.51,1a2.8,2.8,0,0,1,1.69-.55c.93,0,1.39.45,1.39,1.21V96h-1.44c-1.69,0-2.32.73-2.32,1.66s.81,1.67,2.08,1.67a2,2,0,0,0,1.76-.75v.68h1.23V96C238.11,94.41,237.18,93.65,235.57,93.65Zm-5.15,5.64h1.31V93.72h-1.31Zm.66-6.49a.81.81,0,0,0,.84-.82.78.78,0,0,0-.84-.75.79.79,0,1,0,0,1.57Zm-4.17,6.56a2.53,2.53,0,0,0,2.38-1.3l-1-.58a1.57,1.57,0,0,1-1.39.77,1.75,1.75,0,0,1,0-3.49,1.57,1.57,0,0,1,1.39.77l1-.58a2.49,2.49,0,0,0-2.38-1.3,2.86,2.86,0,1,0,0,5.71Zm-6.78-1.11a1.75,1.75,0,1,1,1.66-1.75A1.62,1.62,0,0,1,220.13,98.25Zm0,1.11a2.86,2.86,0,1,0-3-2.86A2.81,2.81,0,0,0,220.13,99.36Zm-6.17,0c1.57,0,2.53-.67,2.53-1.72,0-2.18-3.44-1.18-3.44-2.31,0-.36.37-.62,1.16-.62a3.06,3.06,0,0,1,1.6.41l.5-1a4.44,4.44,0,0,0-2.08-.48c-1.51,0-2.46.69-2.46,1.75,0,2.22,3.45,1.22,3.45,2.28,0,.39-.35.62-1.17.62a3.77,3.77,0,0,1-1.94-.55l-.51,1A4.53,4.53,0,0,0,214,99.36Zm-5.37,0c1.56,0,2.52-.67,2.52-1.72,0-2.18-3.44-1.18-3.44-2.31,0-.36.37-.62,1.17-.62a3.1,3.1,0,0,1,1.6.41l.5-1a4.48,4.48,0,0,0-2.09-.48c-1.51,0-2.46.69-2.46,1.75,0,2.22,3.45,1.22,3.45,2.28,0,.39-.34.62-1.17.62a3.77,3.77,0,0,1-1.94-.55l-.5,1A4.47,4.47,0,0,0,208.59,99.36Zm-7.83-2.82,1.37-3.2,1.38,3.2Zm3.93,2.75h1.42L202.81,92h-1.34l-3.28,7.31h1.4l.72-1.69H204Zm-12.47-5.64a2.41,2.41,0,0,0-1.92.79v-.72h-1.24v5.57h1.3V96.47a1.48,1.48,0,0,1,1.56-1.68c.84,0,1.33.48,1.33,1.47v3h1.3V96.1A2.18,2.18,0,0,0,192.22,93.65ZM186,99.29h1.31V93.72H186Zm.66-6.49a.8.8,0,0,0,.83-.82.77.77,0,0,0-.83-.75.79.79,0,1,0,0,1.57Zm-5,5.61c-.66,0-1.06-.3-1.06-.77s.24-.74,1.13-.74h1.34v.65A1.41,1.41,0,0,1,181.65,98.41Zm.18-4.76a3.92,3.92,0,0,0-2.36.69l.51,1a2.81,2.81,0,0,1,1.7-.55c.92,0,1.38.45,1.38,1.21V96h-1.44c-1.69,0-2.31.73-2.31,1.66s.8,1.67,2.07,1.67a2,2,0,0,0,1.76-.75v.68h1.23V96C184.37,94.41,183.44,93.65,181.83,93.65Zm-6.12,0a2.49,2.49,0,0,0-1.86.71V91.54h-1.3v7.75h1.3V96.47a1.48,1.48,0,0,1,1.56-1.68c.84,0,1.33.48,1.33,1.47v3H178V96.1A2.18,2.18,0,0,0,175.71,93.65Zm-6.62,5.71a2.54,2.54,0,0,0,2.38-1.3l-1-.58a1.57,1.57,0,0,1-1.39.77,1.75,1.75,0,0,1,0-3.49,1.57,1.57,0,0,1,1.39.77l1-.58a2.5,2.5,0,0,0-2.38-1.3,2.86,2.86,0,1,0,0,5.71Zm-4.76-.07h1.59l-2.55-3.24,2.33-2.33h-1.57l-2.7,2.5V91.54h-1.31v7.75h1.31V97.82l1-.92Zm-7.66.07a2.55,2.55,0,0,0,2.38-1.3l-1-.58a1.57,1.57,0,0,1-1.39.77,1.75,1.75,0,0,1,0-3.49,1.57,1.57,0,0,1,1.39.77l1-.58a2.51,2.51,0,0,0-2.38-1.3,2.86,2.86,0,1,0,0,5.71Zm-6.79-1.11a1.75,1.75,0,1,1,1.66-1.75A1.62,1.62,0,0,1,149.88,98.25Zm0,1.11a2.86,2.86,0,1,0-3-2.86A2.81,2.81,0,0,0,149.88,99.36Zm-5.53-.07h1.31V91.54h-1.31Zm-4.27-1.06h-2.19V96.12h2.19c1,0,1.58.32,1.58,1S141.11,98.23,140.08,98.23Zm-.27-5.18c.94,0,1.47.33,1.47,1s-.53,1-1.47,1h-1.92v-2Zm1.9,2.44a1.74,1.74,0,0,0,.94-1.61c0-1.16-.94-1.9-2.69-1.9h-3.43v7.31h3.64c1.88,0,2.86-.73,2.86-2A1.81,1.81,0,0,0,141.71,95.49Zm-12.84,2.76a1.75,1.75,0,1,1,1.66-1.75A1.63,1.63,0,0,1,128.87,98.25Zm1.64-6.71V94.4a2.3,2.3,0,0,0-1.8-.75,2.86,2.86,0,0,0,0,5.71,2.31,2.31,0,0,0,1.85-.79v.72h1.25V91.54Zm-7.18,7.75h1.31V91.54h-1.31Zm-3.09-4.76v-.81H119v5.57h1.3v-2.7a1.53,1.53,0,0,1,1.62-1.73,1.08,1.08,0,0,1,.3,0V93.65A2.21,2.21,0,0,0,120.24,94.53Zm-5.47,3.72a1.75,1.75,0,1,1,1.66-1.75A1.62,1.62,0,0,1,114.77,98.25Zm0,1.11a2.86,2.86,0,1,0-3-2.86A2.81,2.81,0,0,0,114.77,99.36ZM110.4,92l-1.87,5.59L106.69,92h-1.26l-1.89,5.56L101.73,92h-1.41l2.42,7.31h1.45L106,93.88l1.8,5.41h1.45L111.7,92ZM95,99.29h1.3V91.54H95Zm-4.39-.88c-.66,0-1.06-.3-1.06-.77s.24-.74,1.13-.74H92v.65A1.42,1.42,0,0,1,90.6,98.41Zm.18-4.76a3.92,3.92,0,0,0-2.36.69l.51,1a2.8,2.8,0,0,1,1.69-.55c.93,0,1.39.45,1.39,1.21V96H90.57c-1.69,0-2.32.73-2.32,1.66s.81,1.67,2.08,1.67a2,2,0,0,0,1.76-.75v.68h1.23V96C93.32,94.41,92.39,93.65,90.78,93.65Zm-6,1a1.51,1.51,0,0,1,1.57,1.35H83.15A1.53,1.53,0,0,1,84.74,94.7Zm2.81,1.84a2.72,2.72,0,0,0-2.81-2.89,2.77,2.77,0,0,0-2.89,2.85,3.14,3.14,0,0,0,5.33,2l-.7-.81a2,2,0,0,1-1.52.61,1.67,1.67,0,0,1-1.8-1.34h4.37C87.54,96.8,87.55,96.64,87.55,96.54Zm-8-2c0,.92-.62,1.46-1.81,1.46H76.16V93.13h1.59C78.94,93.13,79.56,93.66,79.56,94.58Zm1.49,4.71-1.68-2.4a2.34,2.34,0,0,0,1.55-2.31c0-1.62-1.19-2.6-3.11-2.6h-3v7.31h1.36V97.16h1.93l1.5,2.14Z"/><path class="cls-2" d="M231.55,71.57l6.14-14.81,6.13,14.81Zm18.52,15.09h9.39L242.16,48h-8.84L216.08,86.66h9.17l3.43-8.29h18Zm-51.85-6.74H187.78V70.36h10.44c4.65,0,7.13,1.54,7.13,4.8S202.87,79.92,198.22,79.92Zm-1.54-25.21c4.36,0,6.74,1.5,6.74,4.54s-2.38,4.58-6.74,4.58h-8.9V54.71Zm10.61,11.83A9.3,9.3,0,0,0,212.43,58c0-6-5-10.06-14.65-10.06h-18.9V86.66h20c10.17,0,15.47-3.87,15.47-10.56A9.55,9.55,0,0,0,207.29,66.54ZM165.34,48l-9,27.42L147.48,48h-8.29l-9.12,27.19L121.34,48h-9.28l12.71,38.69h9.56l8.79-26.2,8.51,26.2h9.62L173.9,48Zm-66,14c0,4.2-2.77,6.74-8.24,6.74H83.76V55.27h7.29C96.52,55.27,99.29,57.75,99.29,62Zm9.78,24.65-8.68-12.44a12.57,12.57,0,0,0,8-12.21c0-8.68-6.46-14-16.8-14H74.8V86.66h9V75.88H92l7.46,10.78Z"/><g class="cls-3"><rect class="cls-4" x="3.36" y="2.2" width="129.13" height="142.93"/></g></svg>